# xmcd CD database file
#
# Track frame offsets:
#	150
#	2230
#	19115
#	38410
#	56390
#	72917
#	91210
#	115397
#	136647
#	157350
#
# Disc length: 2411 seconds
#
# Revision: 0
# Processed by: cddbd v1.5PL3 Copyright (c) Steve Scherf et al.
# Submitted via: CDex 1.50Beta6
#
DISCID=7909690a
DTITLE=ピカソ - ダイヤモンドの月
DYEAR=1986
DGENRE=Pop
TTITLE0=チャイナタウン Prologue
TTITLE1=傾斜する心
TTITLE2=獣達のバカンス
TTITLE3=抽象画
TTITLE4=蜜のイメージ
TTITLE5=音のない序曲
TTITLE6=ダイヤモンドの月
TTITLE7=尖った記憶
TTITLE8=夜のパズル
TTITLE9=チャイナタウンで踊った女
EXTD=YEAR: 1986
EXTT0=
EXTT1=
EXTT2=
EXTT3=
EXTT4=
EXTT5=
EXTT6=
EXTT7=
EXTT8=
EXTT9=
PLAYORDER=
